<svg width="40" height="40" viewBox="0 0 40 40" fill="none" xmlns="http://www.w3.org/2000/svg">
<g clip-path="url(#clip0_3_567)">
<mask id="mask0_3_567" style="mask-type:luminance" maskUnits="userSpaceOnUse" x="0" y="0" width="40" height="40">
<path d="M40 0H0V40H40V0Z" fill="white"/>
</mask>
<g mask="url(#mask0_3_567)">
<path d="M6.66667 11.1111C7.54569 11.1111 8.40499 10.8505 9.13587 10.3621C9.86675 9.87376 10.4364 9.17962 10.7728 8.3675C11.1092 7.5554 11.1972 6.66175 11.0257 5.79962C10.8542 4.93749 10.4309 4.14555 9.80936 3.52399C9.1878 2.90242 8.39587 2.47913 7.53373 2.30765C6.6716 2.13615 5.77797 2.22417 4.96585 2.56055C4.15373 2.89695 3.45961 3.46661 2.97124 4.19749C2.48288 4.92837 2.22223 5.78766 2.22223 6.66669C2.22223 7.84543 2.69048 8.97589 3.52397 9.80938C4.35747 10.6429 5.48792 11.1111 6.66667 11.1111ZM6.66667 23.3389C6.66568 22.9236 6.74913 22.5125 6.91197 22.1305C7.0748 21.7485 7.31361 21.4036 7.61389 21.1167L12.6229 16.3889C12.7375 16.2813 12.8847 16.2285 13.0125 16.1411C12.6857 15.3136 12.1178 14.6036 11.3825 14.1029C10.6472 13.6024 9.77844 13.3343 8.88889 13.3333H4.44444C3.26571 13.3333 2.13524 13.8016 1.30175 14.6351C0.468253 15.4687 0 16.5991 0 17.7779V24.4445C0 25.0339 0.234127 25.5991 0.650873 26.0159C1.06762 26.4325 1.63285 26.6667 2.22223 26.6667V35.5556C2.22223 36.1449 2.45635 36.7101 2.87309 37.1269C3.28984 37.5437 3.85508 37.7779 4.44444 37.7779H8.88889C9.47825 37.7779 10.0435 37.5437 10.4602 37.1269C10.877 36.7101 11.1111 36.1449 11.1111 35.5556V28.8619L7.61389 25.5612C7.31352 25.2744 7.07464 24.9295 6.9118 24.5475C6.74896 24.1653 6.66556 23.7543 6.66667 23.3389ZM33.3333 11.1111C34.2124 11.1111 35.0716 10.8505 35.8025 10.3621C36.5335 9.87376 37.1031 9.17962 37.4395 8.3675C37.7759 7.5554 37.8639 6.66175 37.6924 5.79962C37.5209 4.93749 37.0976 4.14555 36.476 3.52399C35.8544 2.90242 35.0625 2.47913 34.2004 2.30765C33.3383 2.13615 32.4447 2.22417 31.6325 2.56055C30.8204 2.89695 30.1263 3.46661 29.6379 4.19749C29.1496 4.92837 28.8889 5.78766 28.8889 6.66669C28.8889 7.84543 29.3572 8.97589 30.1907 9.80938C31.0241 10.6429 32.1545 11.1111 33.3333 11.1111ZM35.5556 13.3333H31.1111C30.2216 13.3341 29.3529 13.6021 28.6176 14.1027C27.8824 14.6032 27.3144 15.3131 26.9875 16.1403C27.1153 16.2285 27.2653 16.2792 27.3777 16.3896L32.3861 21.116C32.6855 21.4036 32.9236 21.7485 33.0864 22.1304C33.2491 22.5124 33.3329 22.9232 33.3329 23.3383C33.3329 23.7533 33.2491 24.1641 33.0864 24.546C32.9236 24.9279 32.6855 25.2729 32.3861 25.5604L28.8889 28.8625V35.5556C28.8889 36.1449 29.1231 36.7101 29.5397 37.1269C29.9565 37.5437 30.5217 37.7779 31.1111 37.7779H35.5556C36.1449 37.7779 36.7101 37.5437 37.1269 37.1269C37.5436 36.7101 37.7777 36.1449 37.7777 35.5556V26.6667C38.3672 26.6667 38.9324 26.4325 39.3491 26.0159C39.7659 25.5991 40 25.0339 40 24.4445V17.7779C40 16.5991 39.5317 15.4687 38.6983 14.6351C37.8648 13.8016 36.7343 13.3333 35.5556 13.3333ZM30.8611 22.732L25.8528 18.0056C25.7345 17.8929 25.5859 17.8175 25.4251 17.7885C25.2643 17.7597 25.0987 17.7787 24.9485 17.8432C24.7985 17.9077 24.6708 18.0149 24.5812 18.1515C24.4915 18.288 24.444 18.4479 24.4444 18.6112V21.1112H15.5556V18.6112C15.5561 18.4477 15.5087 18.2879 15.4192 18.1512C15.3296 18.0145 15.2017 17.9072 15.0517 17.8427C14.9016 17.778 14.7359 17.7589 14.5751 17.7879C14.4143 17.8167 14.2655 17.8921 14.1472 18.0049L9.13889 22.732C8.9788 22.8933 8.88897 23.1113 8.88897 23.3385C8.88897 23.5659 8.9788 23.7839 9.13889 23.9452L14.1472 28.6723C14.2655 28.7851 14.4144 28.8605 14.5752 28.8893C14.7361 28.9181 14.902 28.8991 15.052 28.8344C15.2021 28.7697 15.3299 28.6623 15.4195 28.5256C15.5089 28.3888 15.5563 28.2288 15.5556 28.0653V25.5556H24.4444V28.0653C24.4437 28.2288 24.4911 28.3888 24.5805 28.5256C24.6701 28.6623 24.7979 28.7697 24.948 28.8344C25.098 28.8991 25.2639 28.9181 25.4248 28.8893C25.5856 28.8605 25.7345 28.7851 25.8528 28.6723L30.8611 23.9452C31.0212 23.7839 31.1111 23.5659 31.1111 23.3385C31.1111 23.1113 31.0212 22.8933 30.8611 22.732Z" fill="white"/>
</g>
</g>
<defs>
<clipPath id="clip0_3_567">
<rect width="40" height="40" fill="white"/>
</clipPath>
</defs>
</svg>
