<svg width="50" height="40" viewBox="0 0 50 40" fill="none" xmlns="http://www.w3.org/2000/svg">
<path fill-rule="evenodd" clip-rule="evenodd" d="M38.0333 23.3333C36.3851 23.3333 34.7739 22.8446 33.4035 21.9289C32.0331 21.0132 30.965 19.7118 30.3343 18.189C29.7035 16.6663 29.5385 14.9907 29.86 13.3742C30.1816 11.7577 30.9753 10.2729 32.1407 9.10746C33.3062 7.94202 34.791 7.14832 36.4075 6.82678C38.024 6.50523 39.6996 6.67029 41.2223 7.30102C42.7451 7.93175 44.0465 8.99982 44.9622 10.3702C45.8778 11.7406 46.3666 13.3518 46.3666 15C46.3666 17.2101 45.4886 19.3297 43.9258 20.8925C42.363 22.4553 40.2434 23.3333 38.0333 23.3333ZM38.0333 10C37.0443 10 36.0776 10.2932 35.2553 10.8426C34.4331 11.392 33.7923 12.173 33.4139 13.0866C33.0355 14.0002 32.9364 15.0055 33.1293 15.9754C33.3222 16.9453 33.7984 17.8362 34.4977 18.5355C35.197 19.2348 36.0878 19.711 37.0577 19.9039C38.0276 20.0968 39.0331 19.9978 39.9467 19.6194C40.8603 19.241 41.6412 18.6001 42.1906 17.7779C42.74 16.9556 43.0333 15.9889 43.0333 15C43.0333 13.6739 42.5065 12.4022 41.5688 11.4645C40.6311 10.5268 39.3593 10 38.0333 10ZM23.8499 32.2C23.0322 30.4846 21.7299 29.0463 20.1038 28.0629C18.4776 27.0795 16.5989 26.5941 14.6999 26.6667C7.18324 26.6667 4.16665 32.755 3.31665 40H0C1.08333 30.9583 5.34991 23.3333 14.6999 23.3333C16.9462 23.2581 19.1721 23.7818 21.1491 24.8509C23.1261 25.9199 24.783 27.4958 25.9499 29.4167C25.1169 30.2361 24.4092 31.174 23.8499 32.2V32.2ZM14.6999 20C12.7221 20 10.7888 19.4135 9.14429 18.3147C7.4998 17.2159 6.2179 15.6541 5.46102 13.8269C4.70414 11.9996 4.50612 9.98892 4.89197 8.04911C5.27782 6.1093 6.23026 4.32745 7.62879 2.92892C9.02731 1.53039 10.8092 0.578006 12.749 0.192153C14.6888 -0.193699 16.6996 0.00432817 18.5268 0.761205C20.3541 1.51808 21.9157 2.79978 23.0145 4.44427C24.1133 6.08876 24.6999 8.02218 24.6999 10C24.6999 12.6522 23.6464 15.1957 21.771 17.0711C19.8957 18.9464 17.3521 20 14.6999 20ZM14.6999 3.33333C13.3814 3.33333 12.0924 3.72434 10.9961 4.45688C9.89977 5.18943 9.04524 6.2306 8.54065 7.44878C8.03607 8.66695 7.90418 10.0074 8.16142 11.3006C8.41865 12.5938 9.05361 13.7817 9.98596 14.714C10.9183 15.6464 12.106 16.2813 13.3993 16.5385C14.6925 16.7958 16.033 16.6638 17.2512 16.1592C18.4694 15.6546 19.5106 14.8001 20.2431 13.7038C20.9757 12.6075 21.3666 11.3185 21.3666 10C21.3666 8.23189 20.6641 6.53619 19.4139 5.28595C18.1636 4.0357 16.468 3.33333 14.6999 3.33333ZM38.0333 26.6667C45.3666 26.6667 48.6666 32.78 49.4832 40H46.1833C45.5833 34.565 43.4166 30 38.0333 30C32.6499 30 30.4832 34.5683 29.8832 40H26.5833C27.3999 32.7817 30.6999 26.6667 38.0333 26.6667Z" fill="#DF562A"/>
</svg>
