<svg xmlns="http://www.w3.org/2000/svg" fill="none" viewBox="0 0 54 44"><path fill="#E33D01" d="M14.722 22.76c-.096-.085-.289-.17-.385-.257a1.774 1.774 0 0 0-.964-.257h-1.639c-.29 0-.482 0-.771.172-.193.085-.482.171-.579.343-.096.086-.193.257-.289.343a1.34 1.34 0 0 0-.29.858v1.46c0 .257 0 .429.194.686.096.172.192.43.385.515.097.086.29.172.386.258.29.171.578.257.964.257h1.639c.192 0 .289 0 .482-.086h.096c.193-.086.386-.086.482-.171.096-.086.29-.172.386-.258.096-.086.192-.172.289-.343 0-.086.096-.172.096-.172 0-.086.097-.172.097-.257 0-.172.096-.258.096-.43V23.963c0-.257 0-.429-.193-.686-.193-.172-.289-.43-.482-.515ZM22.53 22.76c-.096-.085-.289-.17-.385-.257a1.774 1.774 0 0 0-.964-.257h-1.639c-.29 0-.482 0-.771.172-.193.085-.482.171-.579.343-.096.086-.192.257-.289.343a1.34 1.34 0 0 0-.289.858v1.46c0 .257 0 .429.193.686.096.172.193.43.386.515.096.086.289.172.385.258.29.171.579.257.964.257h1.639c.193 0 .289 0 .482-.086h.096c.193-.086.386-.086.482-.171.097-.086.29-.172.386-.258.096-.086.193-.172.289-.343 0-.086.096-.172.096-.172 0-.086.097-.172.097-.257 0-.172.096-.258.096-.43V23.963c0-.257 0-.429-.193-.686-.192-.172-.289-.43-.482-.515ZM36.315 28.769c-.096-.086-.289-.172-.385-.258a1.774 1.774 0 0 0-.964-.257h-1.639c-.29 0-.482 0-.771.171-.193.086-.482.172-.579.344-.096.085-.192.257-.289.343a1.34 1.34 0 0 0-.289.858v1.459c0 .258 0 .43.193.687.096.171.193.429.385.515.097.086.29.171.386.257.29.172.578.258.964.258h1.639c.192 0 .289 0 .482-.086h.096c.193-.086.386-.086.482-.172.096-.086.29-.171.386-.257.096-.086.193-.172.289-.344 0-.085.096-.171.096-.171 0-.086.097-.172.097-.258 0-.171.096-.257.096-.429V29.97c0-.257 0-.429-.193-.686-.192-.172-.289-.344-.482-.515ZM44.509 28.769c-.096-.086-.29-.172-.386-.258a1.774 1.774 0 0 0-.963-.257H41.52c-.29 0-.482 0-.772.171-.192.086-.481.172-.578.344-.096.085-.193.257-.289.343a1.34 1.34 0 0 0-.29.858v1.459c0 .258 0 .43.194.687.096.171.192.429.385.515.097.086.29.171.386.257.289.172.578.258.964.258h1.639c.192 0 .289 0 .482-.086h.096c.193-.086.386-.086.482-.172.096-.086.289-.171.385-.257.097-.086.193-.172.29-.344 0-.085.096-.171.096-.171 0-.086.096-.172.096-.258 0-.171.097-.257.097-.429V29.97c0-.257 0-.429-.193-.686-.193-.172-.29-.344-.482-.515ZM44.509 34.862c-.096-.086-.29-.172-.386-.257a1.774 1.774 0 0 0-.963-.258H41.52c-.29 0-.482 0-.772.172-.192.086-.481.172-.578.343-.096.086-.193.258-.289.343a1.34 1.34 0 0 0-.29.859V37.523c0 .257 0 .429.194.686.096.172.192.43.385.515.097.086.29.172.386.258.289.171.578.257.964.257h1.639c.192 0 .289 0 .482-.086h.096c.193-.085.386-.085.482-.171.096-.086.289-.172.385-.258.097-.086.193-.171.29-.343 0-.086.096-.172.096-.172 0-.086.096-.171.096-.257 0-.172.097-.258.097-.43v-1.458c0-.258 0-.43-.193-.687-.193-.172-.29-.343-.482-.515ZM36.219 34.69c-.096-.085-.29-.171-.386-.257a1.774 1.774 0 0 0-.964-.258h-1.638c-.29 0-.482 0-.772.172-.192.086-.482.172-.578.343-.096.086-.193.258-.29.344a1.34 1.34 0 0 0-.288.858V37.351c0 .258 0 .43.192.687.097.171.193.429.386.515.096.085.29.171.386.257.289.172.578.258.964.258H34.869c.193 0 .29 0 .482-.086h.097c.193-.086.385-.086.482-.172.096-.086.289-.172.385-.257.097-.086.193-.172.29-.344 0-.086.096-.171.096-.171 0-.086.096-.172.096-.258 0-.172.097-.257.097-.429V35.892c0-.258 0-.43-.193-.687-.193-.171-.29-.343-.482-.514ZM32.267 16.152c.096.086.289.172.385.258.29.172.578.258.964.258h1.639c.193 0 .29 0 .482-.086h.096c.193-.086.386-.086.482-.172.097-.086.29-.172.386-.258.096-.085.193-.171.289-.343 0-.086.096-.171.096-.171 0-.086.097-.172.097-.258 0-.171.096-.257.096-.429V13.492c0-.258 0-.43-.193-.687-.096-.171-.192-.429-.385-.514-.097-.086-.29-.172-.386-.258a1.773 1.773 0 0 0-.964-.258h-1.639c-.289 0-.482 0-.77.172-.194.086-.483.172-.58.344-.096.085-.192.257-.288.343a1.34 1.34 0 0 0-.29.858V14.951c0 .258 0 .43.193.687 0 .171.097.343.29.514ZM24.266 16.152c.096.086.289.172.385.258.29.172.579.258.964.258h1.639c.193 0 .29 0 .482-.086h.096c.193-.086.386-.086.482-.172.097-.086.29-.172.386-.258.096-.085.193-.171.289-.343 0-.086.096-.171.096-.171 0-.086.097-.172.097-.258 0-.171.096-.257.096-.429V13.492c0-.258 0-.43-.193-.687-.096-.171-.192-.429-.385-.514-.097-.086-.29-.172-.386-.258a1.773 1.773 0 0 0-.964-.258h-1.638c-.29 0-.482 0-.772.172-.193.086-.482.172-.578.344-.096.085-.193.257-.29.343a1.34 1.34 0 0 0-.288.858V14.951c0 .258 0 .43.192.687-.096.171.097.429.29.514ZM22.53 28.769c-.096-.086-.289-.172-.385-.258a1.774 1.774 0 0 0-.964-.257h-1.639c-.29 0-.482 0-.771.171-.193.086-.482.172-.579.344-.096.085-.192.257-.289.343a1.34 1.34 0 0 0-.289.858v1.459c0 .258 0 .43.193.687.096.171.193.429.386.515.096.086.289.171.385.257.29.172.579.258.964.258h1.639c.193 0 .289 0 .482-.086h.096c.193-.086.386-.086.482-.172.097-.086.29-.171.386-.257.096-.086.193-.172.289-.344 0-.085.096-.171.096-.171 0-.086.097-.172.097-.258 0-.171.096-.257.096-.429V29.97c0-.257 0-.429-.193-.686-.192-.172-.289-.344-.482-.515ZM22.434 34.862c-.096-.086-.29-.172-.386-.257a1.774 1.774 0 0 0-.964-.258h-1.638c-.29 0-.482 0-.772.172-.192.086-.482.172-.578.343-.096.086-.193.258-.29.343a1.34 1.34 0 0 0-.288.859V37.523c0 .257 0 .429.192.686.097.172.193.43.386.515.096.086.29.172.386.258.289.171.578.257.964.257h1.638c.193 0 .29 0 .482-.086h.097c.193-.085.385-.085.482-.171.096-.086.289-.172.385-.258.097-.086.193-.171.29-.343 0-.086.096-.172.096-.172 0-.086.096-.171.096-.257 0-.172.097-.258.097-.43v-1.458c0-.258 0-.43-.193-.687-.193-.172-.29-.343-.482-.515ZM14.722 34.948c-.096-.086-.289-.172-.385-.258a1.773 1.773 0 0 0-.964-.257h-1.639c-.29 0-.482 0-.771.172-.193.086-.482.171-.579.343-.096.086-.193.257-.289.343a1.34 1.34 0 0 0-.29.859V37.609c0 .257 0 .429.194.686.096.172.192.43.385.515.097.086.29.172.386.258.29.171.578.257.964.257h1.639c.192 0 .289 0 .482-.086h.096c.193-.086.386-.086.482-.171.096-.086.29-.172.386-.258a1.21 1.21 0 0 0 .289-.343c0-.086.096-.172.096-.172 0-.086.097-.172.097-.257 0-.172.096-.258.096-.43V36.15c0-.258 0-.43-.193-.687-.193-.172-.289-.43-.482-.515ZM14.722 28.769c-.096-.086-.289-.172-.385-.258a1.774 1.774 0 0 0-.964-.257h-1.639c-.29 0-.482 0-.771.171-.193.086-.482.172-.579.344-.096.085-.193.257-.289.343a1.34 1.34 0 0 0-.29.858v1.459c0 .258 0 .43.194.687.096.171.192.429.385.515.097.086.29.171.386.257.29.172.578.258.964.258h1.639c.192 0 .289 0 .482-.086h.096c.193-.086.386-.086.482-.172.096-.086.29-.171.386-.257.096-.086.192-.172.289-.344 0-.085.096-.171.096-.171 0-.086.097-.172.097-.258 0-.171.096-.257.096-.429V29.97c0-.257 0-.429-.193-.686-.193-.172-.289-.344-.482-.515Z"/><path fill="#E33D01" d="M51.835 40.012h-.77V29.284c0-1.374.096-2.833 0-4.206-.097-1.716-1.254-3.261-3.182-3.69-.675-.172-1.35-.086-2.024-.086h-2.507v-7.724c0-1.373-.096-2.575-1.253-3.69-1.06-1.03-2.217-1.975-3.374-3.005l-4.53-4.033C32.94 1.734 31.784.36 29.76.79c-1.253.257-2.41 1.63-3.374 2.489l-4.627 4.12c-1.06.943-2.313 1.888-3.277 2.917-.579.515-.771 1.202-.868 1.974-2.699-1.03-4.916 1.717-6.555 3.176l-6.073 5.407c-.868.772-1.542 1.545-1.542 2.66v16.479H2.48a1.724 1.724 0 0 0 0 3.432h49.356a1.724 1.724 0 0 0 0-3.432ZM31.013 4.052c.193-.258.386-.087 0 0Zm-8.965 7.98 1.64-1.458 4.337-3.862 1.832-1.63c.192-.172.482-.344.674-.602.29.258.579.43.772.601 1.35 1.202 2.795 2.49 4.145 3.69l3.566 3.176c.097.086.29.172.386.343l.096.086c.097.258 0 .687 0 .944v7.982h-7.808c-1.157 0-2.313 0-3.277.257-.097-.085-.097-.171-.193-.257-1.639-1.545-3.374-3.004-5.11-4.549l-1.542-1.373v-2.746c.193-.258.386-.515.482-.601Zm3.278 11.501c-.096-.171.096-.171 0 0ZM7.3 23.62c0-.171.096-.086 0 0Zm1.35 16.393H7.3V23.619c.482-.343.964-.858 1.35-1.201l3.084-2.747 2.988-2.66 1.157-1.03.482-.43c.096.086.193.172.29.172l2.698 2.403 5.688 5.064.289.258v.085c-.096.515-.096 1.03 0 1.631-.096.858 0 1.802 0 2.575v12.273H8.649Zm26.508 0h-5.976V24.993c.193-.516.867-.344 1.542-.344h13.592c.579 0 2.603-.343 2.796.343.096.344 0 .773 0 1.03v13.99H35.158Z"/></svg>