<svg xmlns="http://www.w3.org/2000/svg" fill="none" viewBox="0 0 60 44"><path fill="#E33D01" fill-rule="evenodd" d="M45.64 25.638c-1.978 0-3.911-.522-5.556-1.5-1.644-.979-2.926-2.37-3.683-3.996a8.001 8.001 0 0 1-.569-5.144c.386-1.727 1.338-3.313 2.737-4.558 1.398-1.246 3.18-2.094 5.12-2.437a11.15 11.15 0 0 1 5.778.507c1.827.673 3.389 1.815 4.488 3.279 1.098 1.464 1.685 3.185 1.685 4.946 0 2.361-1.054 4.626-2.929 6.295-1.875 1.67-4.419 2.608-7.071 2.608Zm0-14.245a6.538 6.538 0 0 0-3.334.9c-.986.587-1.755 1.422-2.21 2.398a4.8 4.8 0 0 0-.34 3.086c.23 1.036.802 1.988 1.641 2.735a6.26 6.26 0 0 0 3.072 1.462 6.69 6.69 0 0 0 3.467-.304c1.096-.404 2.033-1.089 2.693-1.967a4.936 4.936 0 0 0 1.01-2.968c0-1.417-.631-2.775-1.756-3.777-1.126-1.002-2.652-1.565-4.243-1.565ZM28.62 35.111c-.981-1.833-2.544-3.37-4.495-4.42-1.952-1.05-4.206-1.57-6.485-1.492C8.62 29.2 5 35.704 3.98 43.444H0c1.3-9.66 6.42-17.806 17.64-17.806a16.74 16.74 0 0 1 7.739 1.621c2.372 1.143 4.36 2.826 5.76 4.878a12.95 12.95 0 0 0-2.52 2.974ZM17.64 22.077c-2.373 0-4.694-.627-6.667-1.8-1.973-1.175-3.512-2.843-4.42-4.795a9.6 9.6 0 0 1-.683-6.173c.463-2.073 1.606-3.976 3.285-5.47 1.678-1.495 3.816-2.512 6.144-2.924a13.38 13.38 0 0 1 6.933.608c2.193.808 4.067 2.178 5.385 3.934 1.319 1.757 2.023 3.823 2.023 5.936 0 2.834-1.264 5.551-3.515 7.555-2.25 2.003-5.302 3.129-8.485 3.129Zm0-17.806a8.717 8.717 0 0 0-4.445 1.2c-1.315.783-2.34 1.895-2.946 3.196a6.4 6.4 0 0 0-.455 4.116c.308 1.381 1.07 2.65 2.19 3.647 1.118.996 2.543 1.674 4.095 1.949a8.92 8.92 0 0 0 4.622-.405c1.462-.54 2.712-1.453 3.59-2.624.88-1.171 1.349-2.548 1.349-3.957 0-1.889-.843-3.7-2.343-5.036-1.5-1.336-3.535-2.086-5.657-2.086Zm28 24.928c8.8 0 12.76 6.532 13.74 14.245h-3.96c-.72-5.806-3.32-10.683-9.78-10.683-6.46 0-9.06 4.88-9.78 10.683H31.9c.98-7.712 4.94-14.245 13.74-14.245Z" clip-rule="evenodd"/></svg>