<svg xmlns="http://www.w3.org/2000/svg" fill="none" viewBox="0 0 45 40"><path fill="#fff" d="M11.768 20.64c-.08-.08-.24-.16-.32-.24a1.357 1.357 0 0 0-.804-.242H9.279c-.242 0-.402 0-.643.16-.161.081-.402.162-.482.322-.08.08-.161.241-.241.322-.161.24-.241.482-.241.803v1.365c0 .241 0 .402.16.643.08.16.161.402.322.482.08.08.24.16.32.241.242.16.483.241.804.241h1.365c.162 0 .242 0 .402-.08h.08c.162-.08.322-.08.402-.16.08-.081.242-.162.322-.242.08-.08.16-.16.24-.321 0-.08.081-.16.081-.16 0-.081.08-.162.08-.242 0-.16.08-.24.08-.402v-1.365c0-.241 0-.402-.16-.643-.16-.16-.24-.401-.402-.482ZM18.275 20.64c-.08-.08-.24-.16-.321-.24a1.357 1.357 0 0 0-.803-.242h-1.365c-.242 0-.403 0-.644.16-.16.081-.401.162-.481.322-.08.08-.161.241-.242.322-.16.24-.24.482-.24.803v1.365c0 .241 0 .402.16.643.08.16.16.402.322.482.08.08.24.16.32.241.242.16.483.241.804.241h1.365c.161 0 .242 0 .402-.08h.08c.161-.08.322-.08.402-.16.08-.081.241-.162.322-.242.08-.08.16-.16.24-.321 0-.08.081-.16.081-.16 0-.081.08-.162.08-.242 0-.16.08-.24.08-.402v-1.365c0-.241 0-.402-.16-.643-.16-.16-.241-.401-.402-.482ZM29.763 26.263c-.08-.08-.241-.16-.322-.24a1.357 1.357 0 0 0-.803-.242h-1.365c-.241 0-.402 0-.643.161-.16.08-.402.16-.482.321-.08.08-.16.241-.241.322-.16.24-.241.482-.241.803v1.365c0 .242 0 .402.16.643.08.16.161.402.322.482.08.08.24.16.321.241.241.16.482.241.803.241h1.366c.16 0 .241 0 .402-.08h.08c.16-.08.321-.08.402-.16.08-.081.24-.161.321-.242.08-.08.16-.16.241-.321 0-.08.08-.16.08-.16 0-.081.08-.161.08-.242 0-.16.081-.24.081-.401v-1.366c0-.241 0-.402-.16-.643-.161-.16-.242-.321-.402-.482ZM36.59 26.263c-.08-.08-.24-.16-.32-.24a1.357 1.357 0 0 0-.804-.242h-1.365c-.241 0-.402 0-.643.161-.16.08-.402.16-.482.321-.08.08-.16.241-.241.322-.16.24-.241.482-.241.803v1.365c0 .242 0 .402.16.643.081.16.161.402.322.482.08.08.241.16.321.241.241.16.482.241.804.241h1.365c.16 0 .241 0 .402-.08h.08c.16-.08.322-.08.402-.16.08-.081.24-.161.321-.242.08-.08.16-.16.241-.321 0-.08.08-.16.08-.16 0-.081.08-.161.08-.242 0-.16.081-.24.081-.401v-1.366c0-.241 0-.402-.16-.643-.161-.16-.242-.321-.402-.482ZM36.59 31.967c-.08-.08-.24-.16-.32-.241a1.357 1.357 0 0 0-.804-.241h-1.365c-.241 0-.402 0-.643.16-.16.08-.402.161-.482.322-.08.08-.16.24-.241.321-.16.241-.241.482-.241.804v1.365c0 .241 0 .402.16.643.081.16.161.401.322.482.08.08.241.16.321.24.241.161.482.242.804.242h1.365c.16 0 .241 0 .402-.08h.08c.16-.08.322-.08.402-.161.08-.08.24-.16.321-.241.08-.08.16-.16.241-.322 0-.08.08-.16.08-.16 0-.08.08-.16.08-.241 0-.16.081-.241.081-.402v-1.365c0-.242 0-.402-.16-.643-.161-.16-.242-.322-.402-.482ZM29.682 31.806c-.08-.08-.24-.16-.32-.24a1.358 1.358 0 0 0-.804-.242h-1.365c-.242 0-.402 0-.644.16-.16.081-.401.161-.482.322-.08.08-.16.241-.24.321-.161.241-.242.482-.242.804v1.365c0 .242 0 .402.161.643.08.16.16.402.322.482.08.08.24.16.32.241.242.16.483.241.804.241h1.365c.161 0 .242 0 .402-.08h.08c.161-.08.322-.08.402-.16.08-.081.241-.162.322-.242.08-.08.16-.16.24-.321 0-.08.081-.16.081-.16 0-.081.08-.161.08-.242 0-.16.08-.24.08-.401V32.93c0-.241 0-.402-.16-.643-.16-.16-.24-.321-.402-.482ZM26.389 14.455c.08.08.24.16.321.24.241.161.482.242.803.242h1.366c.16 0 .241 0 .402-.08h.08c.16-.081.321-.081.402-.161.08-.08.24-.161.321-.241.08-.08.16-.161.241-.322 0-.08.08-.16.08-.16 0-.08.08-.161.08-.241 0-.161.081-.241.081-.402v-1.365c0-.242 0-.402-.16-.643-.081-.16-.161-.402-.322-.482-.08-.08-.24-.16-.321-.241a1.357 1.357 0 0 0-.804-.241h-1.365c-.241 0-.402 0-.643.16-.16.08-.402.161-.482.322-.08.08-.16.24-.24.321-.162.241-.242.482-.242.803v1.366c0 .241 0 .402.16.643 0 .16.081.321.242.482ZM19.721 14.455c.08.08.241.16.322.24.24.161.482.242.803.242h1.365c.161 0 .242 0 .402-.08h.08c.161-.081.322-.081.402-.161.08-.08.241-.161.322-.241.08-.08.16-.161.24-.322 0-.08.08-.16.08-.16 0-.08.081-.161.081-.241 0-.161.08-.241.08-.402v-1.365c0-.242 0-.402-.16-.643-.08-.16-.16-.402-.321-.482-.08-.08-.241-.16-.322-.241a1.357 1.357 0 0 0-.803-.241h-1.365c-.242 0-.402 0-.643.16-.161.08-.402.161-.482.322-.08.08-.161.24-.241.321-.161.241-.241.482-.241.803v1.366c0 .241 0 .402.16.643-.08.16.08.401.241.482ZM18.275 26.263c-.08-.08-.24-.16-.321-.24a1.357 1.357 0 0 0-.803-.242h-1.365c-.242 0-.403 0-.644.161-.16.08-.401.16-.481.321-.08.08-.161.241-.242.322-.16.24-.24.482-.24.803v1.365c0 .242 0 .402.16.643.08.16.16.402.322.482.08.08.24.16.32.241.242.16.483.241.804.241h1.365c.161 0 .242 0 .402-.08h.08c.161-.08.322-.08.402-.16.08-.081.241-.161.322-.242.08-.08.16-.16.24-.321 0-.08.081-.16.081-.16 0-.081.08-.161.08-.242 0-.16.08-.24.08-.401v-1.366c0-.241 0-.402-.16-.643-.16-.16-.241-.321-.402-.482ZM18.195 31.967c-.08-.08-.241-.16-.321-.241a1.357 1.357 0 0 0-.804-.241h-1.365c-.241 0-.402 0-.643.16-.16.08-.401.161-.482.322-.08.08-.16.24-.24.321-.162.241-.242.482-.242.804v1.365c0 .241 0 .402.16.643.081.16.162.401.322.482.08.08.241.16.322.24.24.161.481.242.803.242h1.365c.161 0 .241 0 .402-.08h.08c.161-.08.322-.08.402-.161.08-.08.241-.16.321-.241.08-.08.161-.16.241-.322 0-.08.08-.16.08-.16 0-.08.081-.16.081-.241 0-.16.08-.241.08-.402v-1.365c0-.242 0-.402-.16-.643-.161-.16-.241-.322-.402-.482ZM11.768 32.047c-.08-.08-.24-.16-.32-.24a1.357 1.357 0 0 0-.804-.242H9.279c-.242 0-.402 0-.643.16-.161.081-.402.162-.482.322-.08.08-.161.241-.241.322-.161.24-.241.481-.241.803v1.365c0 .242 0 .402.16.643.08.16.161.402.322.482.08.08.24.16.32.241.242.16.483.241.804.241h1.365c.162 0 .242 0 .402-.08h.08c.162-.08.322-.08.402-.16.08-.081.242-.162.322-.242.08-.08.16-.16.24-.321 0-.08.081-.16.081-.16 0-.081.08-.161.08-.242 0-.16.08-.24.08-.401v-1.366c0-.241 0-.402-.16-.643-.16-.16-.24-.402-.402-.482ZM11.768 26.263c-.08-.08-.24-.16-.32-.24a1.357 1.357 0 0 0-.804-.242H9.279c-.242 0-.402 0-.643.161-.161.08-.402.16-.482.321-.08.08-.161.241-.241.322-.161.24-.241.482-.241.803v1.365c0 .242 0 .402.16.643.08.16.161.402.322.482.08.08.24.16.32.241.242.16.483.241.804.241h1.365c.162 0 .242 0 .402-.08h.08c.162-.08.322-.08.402-.16.08-.081.242-.161.322-.242.08-.08.16-.16.24-.321 0-.08.081-.16.081-.16 0-.081.08-.161.08-.242 0-.16.08-.24.08-.401v-1.366c0-.241 0-.402-.16-.643-.16-.16-.24-.321-.402-.482Z"/><path fill="#fff" d="M42.696 36.787h-.643V26.745c0-1.285.08-2.65 0-3.936-.08-1.607-1.044-3.053-2.65-3.454-.563-.16-1.125-.08-1.688-.08h-2.088v-7.23c0-1.286-.08-2.41-1.044-3.455-.884-.963-1.848-1.847-2.812-2.811l-3.776-3.776C26.951.96 25.987-.327 24.3.075c-1.044.241-2.008 1.527-2.811 2.33l-3.856 3.856c-.884.884-1.928 1.767-2.732 2.731-.482.482-.642 1.125-.723 1.848-2.249-.964-4.096 1.606-5.462 2.972l-5.06 5.06c-.724.724-1.286 1.447-1.286 2.491v15.423h-.804c-2.088 0-2.088 3.214 0 3.214h41.13c2.089 0 2.089-3.213 0-3.213ZM25.345 3.127c.16-.24.32-.08 0 .001ZM17.873 10.6l1.365-1.366 3.615-3.615 1.527-1.526c.16-.16.401-.321.562-.562.24.24.482.401.642.562a124996.658 124996.658 0 0 0 6.427 6.426c.08.08.241.161.321.322l.08.08c.081.241 0 .643 0 .884v7.47h-6.506c-.964 0-1.928 0-2.731.241-.08-.08-.08-.16-.161-.24-1.366-1.446-2.812-2.812-4.258-4.258l-1.285-1.285V11.16c.16-.24.321-.482.402-.562Zm2.731 10.764c-.08-.16.08-.16 0 0Zm-15.022.08c0-.16.08-.08 0 0Zm1.125 15.344H5.583V21.444c.402-.322.803-.804 1.125-1.125l2.57-2.57 2.49-2.491.964-.964.402-.402c.08.08.16.161.241.161l2.25 2.25 4.739 4.739.241.24v.081c-.08.482-.08.964 0 1.526-.08.804 0 1.687 0 2.41v11.487H6.708Zm22.09 0h-4.98V22.729c.16-.482.723-.322 1.285-.322H36.43c.482 0 2.17-.32 2.33.322.08.321 0 .723 0 .964v13.094h-9.961Z"/></svg>