<svg xmlns="http://www.w3.org/2000/svg" fill="none" viewBox="0 0 50 40"><path fill="#fff" fill-rule="evenodd" d="M38.033 23.333a8.333 8.333 0 1 1 0-16.666 8.333 8.333 0 0 1 0 16.666Zm0-13.333a5 5 0 1 0 0 10 5 5 0 0 0 0-10ZM23.85 32.2a9.725 9.725 0 0 0-9.15-5.533C7.183 26.667 4.167 32.755 3.317 40H0c1.083-9.042 5.35-16.667 14.7-16.667a12.667 12.667 0 0 1 11.25 6.084c-.833.82-1.54 1.757-2.1 2.783ZM14.7 20a10 10 0 1 1 0-20 10 10 0 0 1 0 20Zm0-16.667a6.667 6.667 0 1 0 0 13.334 6.667 6.667 0 0 0 0-13.334Zm23.333 23.334c7.334 0 10.634 6.113 11.45 13.333h-3.3c-.6-5.435-2.766-10-8.15-10-5.383 0-7.55 4.568-8.15 10h-3.3c.817-7.218 4.117-13.333 11.45-13.333Z" clip-rule="evenodd"/></svg>