<svg xmlns="http://www.w3.org/2000/svg" fill="none" viewBox="0 0 64 64"><path stroke="#fff" stroke-linecap="round" stroke-linejoin="round" stroke-miterlimit="10" stroke-width="3" d="m46.025 33.56 5.427 5.431a4 4 0 0 0 5.657-5.656L43.68 19.9c-2.441-2.44-5.137-2.672-8.016.208l-.838.828a4 4 0 0 1-5.655-5.656L32 12.455C35.266 9.185 37.124 8 39.873 8h4.34L62 25.776l-6.23 6.23"/><path stroke="#fff" stroke-linecap="round" stroke-linejoin="round" stroke-miterlimit="10" stroke-width="3" d="m46.014 33.559 6.844 6.841a4.001 4.001 0 1 1-5.658 5.66l-6.24-6.242"/><path stroke="#fff" stroke-linecap="round" stroke-linejoin="round" stroke-miterlimit="10" stroke-width="3" d="m40.962 39.818 4.825 4.827a4 4 0 0 1-5.652 5.655l-2.827-2.828"/><path stroke="#fff" stroke-linecap="round" stroke-linejoin="round" stroke-miterlimit="10" stroke-width="3" d="m37.616 47.78 1.39 1.393a4 4 0 0 1-5.653 5.657l-1.39-1.394M8.45 32.007 2 25.556 18.021 9.531s2.132 2.482 3.924 2.482c2.174 0 2.706-.706 4-2 2.124-2.126 5.32-2.063 8 .613"/><path stroke="#fff" stroke-linecap="round" stroke-linejoin="round" stroke-miterlimit="10" stroke-width="3" d="M15.6 36.163a4 4 0 1 0-5.653-5.655l-2.825 2.827a4 4 0 0 0 5.655 5.656l2.823-2.828Z"/><path stroke="#fff" stroke-linecap="round" stroke-linejoin="round" stroke-miterlimit="10" stroke-width="3" d="M21.258 41.818a4 4 0 0 0-5.658-5.656L11.362 40.4a4 4 0 0 0 5.655 5.656l4.241-4.238Zm0 0a4 4 0 0 1 5.653 5.656L24.086 50.3a4 4 0 0 1-5.655-5.655l2.827-2.827Z"/><path stroke="#fff" stroke-linecap="round" stroke-linejoin="round" stroke-miterlimit="10" stroke-width="3" d="M32.258 53.436A4 4 0 0 0 26.6 47.78l-1.392 1.393a4 4 0 0 0 5.655 5.657l1.395-1.394Z"/></svg>