<svg xmlns="http://www.w3.org/2000/svg" fill="none" viewBox="0 0 40 40"><g clip-path="url(#a)"><mask id="b" width="40" height="40" x="0" y="0" maskUnits="userSpaceOnUse" style="mask-type:luminance"><path fill="#fff" d="M40 0H0v40h40V0Z"/></mask><g mask="url(#b)"><path fill="#fff" d="M6.667 11.111a4.444 4.444 0 1 0 0-8.888 4.444 4.444 0 0 0 0 8.888Zm0 12.228a3.063 3.063 0 0 1 .947-2.222l5.009-4.728c.115-.108.262-.16.39-.248a4.438 4.438 0 0 0-4.124-2.808H4.444A4.444 4.444 0 0 0 0 17.778v6.667a2.222 2.222 0 0 0 2.222 2.222v8.889a2.222 2.222 0 0 0 2.222 2.222H8.89a2.222 2.222 0 0 0 2.222-2.222v-6.694l-3.497-3.3a3.062 3.062 0 0 1-.947-2.223ZM33.333 11.11a4.444 4.444 0 1 0 0-8.888 4.444 4.444 0 0 0 0 8.888Zm2.223 2.222H31.11a4.438 4.438 0 0 0-4.123 2.807c.127.088.277.14.39.25l5.008 4.726a3.082 3.082 0 0 1 0 4.444l-3.497 3.303v6.693a2.223 2.223 0 0 0 2.222 2.222h4.445a2.222 2.222 0 0 0 2.222-2.222v-8.89A2.223 2.223 0 0 0 40 24.446v-6.667a4.445 4.445 0 0 0-4.444-4.445Zm-4.695 9.399-5.008-4.726a.835.835 0 0 0-1.409.605v2.5h-8.888v-2.5a.835.835 0 0 0-1.409-.606L9.14 22.732a.861.861 0 0 0 0 1.213l5.008 4.727a.833.833 0 0 0 1.409-.607v-2.51h8.888v2.51a.835.835 0 0 0 1.409.607l5.008-4.727a.861.861 0 0 0 0-1.213Z"/></g></g><defs><clipPath id="a"><path fill="#fff" d="M0 0h40v40H0z"/></clipPath></defs></svg>