<svg width="45" height="40" viewBox="0 0 45 40" fill="none" xmlns="http://www.w3.org/2000/svg">
<path d="M11.7685 20.6402C11.6882 20.5598 11.5275 20.4795 11.4472 20.3992C11.2062 20.2385 10.9652 20.1582 10.6439 20.1582C10.2422 20.1582 9.84057 20.1582 9.43892 20.1582C9.35859 20.1582 9.35859 20.1582 9.27826 20.1582C9.03726 20.1582 8.8766 20.1582 8.63561 20.3188C8.47494 20.3992 8.23395 20.4795 8.15362 20.6402C8.07329 20.7205 7.99296 20.8812 7.91262 20.9615C7.75196 21.2025 7.67163 21.4435 7.67163 21.7648C7.67163 22.1665 7.67163 22.5681 7.67163 22.9698C7.67163 23.0501 7.67163 23.0501 7.67163 23.1304C7.67163 23.3714 7.67163 23.5321 7.83229 23.7731C7.91262 23.9337 7.99296 24.1747 8.15362 24.2551C8.23395 24.3354 8.39461 24.4157 8.47494 24.4961C8.71594 24.6567 8.95693 24.7371 9.27826 24.7371C9.67991 24.7371 10.0816 24.7371 10.4832 24.7371C10.5636 24.7371 10.5636 24.7371 10.6439 24.7371C10.8046 24.7371 10.8849 24.7371 11.0455 24.6567C11.0455 24.6567 11.0455 24.6567 11.1259 24.6567C11.2865 24.5764 11.4472 24.5764 11.5275 24.4961C11.6079 24.4157 11.7685 24.3354 11.8489 24.2551C11.9292 24.1747 12.0095 24.0944 12.0898 23.9337C12.0898 23.8534 12.1702 23.7731 12.1702 23.7731C12.1702 23.6927 12.2505 23.6124 12.2505 23.5321C12.2505 23.3714 12.3308 23.2911 12.3308 23.1304C12.3308 22.7288 12.3308 22.3271 12.3308 21.9255C12.3308 21.8451 12.3308 21.8451 12.3308 21.7648C12.3308 21.5238 12.3308 21.3631 12.1702 21.1221C12.0095 20.9615 11.9292 20.7205 11.7685 20.6402Z" fill="#DF562A"/>
<path d="M18.2754 20.6402C18.195 20.5598 18.0344 20.4795 17.954 20.3992C17.713 20.2385 17.472 20.1582 17.1507 20.1582C16.7491 20.1582 16.3474 20.1582 15.9458 20.1582C15.8654 20.1582 15.8654 20.1582 15.7851 20.1582C15.5441 20.1582 15.3834 20.1582 15.1424 20.3188C14.9818 20.3992 14.7408 20.4795 14.6605 20.6402C14.5801 20.7205 14.4998 20.8812 14.4195 20.9615C14.2588 21.2025 14.1785 21.4435 14.1785 21.7648C14.1785 22.1665 14.1785 22.5681 14.1785 22.9698C14.1785 23.0501 14.1785 23.0501 14.1785 23.1304C14.1785 23.3714 14.1785 23.5321 14.3391 23.7731C14.4195 23.9337 14.4998 24.1747 14.6605 24.2551C14.7408 24.3354 14.9014 24.4157 14.9818 24.4961C15.2228 24.6567 15.4638 24.7371 15.7851 24.7371C16.1867 24.7371 16.5884 24.7371 16.9901 24.7371C17.0704 24.7371 17.0704 24.7371 17.1507 24.7371C17.3114 24.7371 17.3917 24.7371 17.5524 24.6567C17.5524 24.6567 17.5524 24.6567 17.6327 24.6567C17.7934 24.5764 17.954 24.5764 18.0344 24.4961C18.1147 24.4157 18.2754 24.3354 18.3557 24.2551C18.436 24.1747 18.5164 24.0944 18.5967 23.9337C18.5967 23.8534 18.677 23.7731 18.677 23.7731C18.677 23.6927 18.7574 23.6124 18.7574 23.5321C18.7574 23.3714 18.8377 23.2911 18.8377 23.1304C18.8377 22.7288 18.8377 22.3271 18.8377 21.9255C18.8377 21.8451 18.8377 21.8451 18.8377 21.7648C18.8377 21.5238 18.8377 21.3631 18.677 21.1221C18.5164 20.9615 18.436 20.7205 18.2754 20.6402Z" fill="#DF562A"/>
<path d="M29.7627 26.2634C29.6824 26.183 29.5217 26.1027 29.4414 26.0224C29.2004 25.8617 28.9594 25.7814 28.6381 25.7814C28.2364 25.7814 27.8348 25.7814 27.4331 25.7814C27.3528 25.7814 27.3528 25.7814 27.2725 25.7814C27.0315 25.7814 26.8708 25.7814 26.6298 25.942C26.4691 26.0224 26.2282 26.1027 26.1478 26.2634C26.0675 26.3437 25.9872 26.5044 25.9068 26.5847C25.7462 26.8257 25.6658 27.0667 25.6658 27.388C25.6658 27.7897 25.6658 28.1913 25.6658 28.593C25.6658 28.6733 25.6658 28.6733 25.6658 28.7536C25.6658 28.9946 25.6658 29.1553 25.8265 29.3963C25.9068 29.5569 25.9872 29.7979 26.1478 29.8783C26.2282 29.9586 26.3888 30.0389 26.4691 30.1193C26.7101 30.2799 26.9511 30.3603 27.2725 30.3603C27.6741 30.3603 28.0758 30.3603 28.4774 30.3603C28.5578 30.3603 28.5578 30.3603 28.6381 30.3603C28.7988 30.3603 28.8791 30.3603 29.0397 30.2799C29.0397 30.2799 29.0397 30.2799 29.1201 30.2799C29.2807 30.1996 29.4414 30.1996 29.5217 30.1193C29.6021 30.0389 29.7627 29.9586 29.8431 29.8783C29.9234 29.7979 30.0037 29.7176 30.0841 29.5569C30.0841 29.4766 30.1644 29.3963 30.1644 29.3963C30.1644 29.3159 30.2447 29.2356 30.2447 29.1553C30.2447 28.9946 30.325 28.9143 30.325 28.7536C30.325 28.352 30.325 27.9503 30.325 27.5487C30.325 27.4683 30.325 27.4683 30.325 27.388C30.325 27.147 30.325 26.9863 30.1644 26.7453C30.0037 26.5847 29.9234 26.424 29.7627 26.2634Z" fill="#DF562A"/>
<path d="M36.5909 26.2634C36.5106 26.183 36.3499 26.1027 36.2696 26.0224C36.0286 25.8617 35.7876 25.7814 35.4662 25.7814C35.0646 25.7814 34.6629 25.7814 34.2613 25.7814C34.1809 25.7814 34.1809 25.7814 34.1006 25.7814C33.8596 25.7814 33.699 25.7814 33.458 25.942C33.2973 26.0224 33.0563 26.1027 32.976 26.2634C32.8956 26.3437 32.8153 26.5044 32.735 26.5847C32.5743 26.8257 32.494 27.0667 32.494 27.388C32.494 27.7897 32.494 28.1913 32.494 28.593C32.494 28.6733 32.494 28.6733 32.494 28.7536C32.494 28.9946 32.494 29.1553 32.6547 29.3963C32.735 29.5569 32.8153 29.7979 32.976 29.8783C33.0563 29.9586 33.217 30.0389 33.2973 30.1193C33.5383 30.2799 33.7793 30.3603 34.1006 30.3603C34.5023 30.3603 34.9039 30.3603 35.3056 30.3603C35.3859 30.3603 35.3859 30.3603 35.4662 30.3603C35.6269 30.3603 35.7072 30.3603 35.8679 30.2799C35.8679 30.2799 35.8679 30.2799 35.9482 30.2799C36.1089 30.1996 36.2696 30.1996 36.3499 30.1193C36.4302 30.0389 36.5909 29.9586 36.6712 29.8783C36.7515 29.7979 36.8319 29.7176 36.9122 29.5569C36.9122 29.4766 36.9925 29.3963 36.9925 29.3963C36.9925 29.3159 37.0729 29.2356 37.0729 29.1553C37.0729 28.9946 37.1532 28.9143 37.1532 28.7536C37.1532 28.352 37.1532 27.9503 37.1532 27.5487C37.1532 27.4683 37.1532 27.4683 37.1532 27.388C37.1532 27.147 37.1532 26.9863 36.9925 26.7453C36.8319 26.5847 36.7515 26.424 36.5909 26.2634Z" fill="#DF562A"/>
<path d="M36.5909 31.9669C36.5106 31.8866 36.3499 31.8062 36.2696 31.7259C36.0286 31.5652 35.7876 31.4849 35.4662 31.4849C35.0646 31.4849 34.6629 31.4849 34.2613 31.4849C34.1809 31.4849 34.1809 31.4849 34.1006 31.4849C33.8596 31.4849 33.699 31.4849 33.458 31.6456C33.2973 31.7259 33.0563 31.8062 32.976 31.9669C32.8956 32.0472 32.8153 32.2079 32.735 32.2882C32.5743 32.5292 32.494 32.7702 32.494 33.0915C32.494 33.4932 32.494 33.8948 32.494 34.2965C32.494 34.3768 32.494 34.3768 32.494 34.4571C32.494 34.6981 32.494 34.8588 32.6547 35.0998C32.735 35.2605 32.8153 35.5015 32.976 35.5818C33.0563 35.6621 33.217 35.7424 33.2973 35.8228C33.5383 35.9834 33.7793 36.0638 34.1006 36.0638C34.5023 36.0638 34.9039 36.0638 35.3056 36.0638C35.3859 36.0638 35.3859 36.0638 35.4662 36.0638C35.6269 36.0638 35.7072 36.0638 35.8679 35.9834C35.8679 35.9834 35.8679 35.9834 35.9482 35.9834C36.1089 35.9031 36.2696 35.9031 36.3499 35.8228C36.4302 35.7424 36.5909 35.6621 36.6712 35.5818C36.7515 35.5015 36.8319 35.4211 36.9122 35.2605C36.9122 35.1801 36.9925 35.0998 36.9925 35.0998C36.9925 35.0195 37.0729 34.9391 37.0729 34.8588C37.0729 34.6981 37.1532 34.6178 37.1532 34.4571C37.1532 34.0555 37.1532 33.6538 37.1532 33.2522C37.1532 33.1719 37.1532 33.1718 37.1532 33.0915C37.1532 32.8505 37.1532 32.6899 36.9925 32.4489C36.8319 32.2882 36.7515 32.1275 36.5909 31.9669Z" fill="#DF562A"/>
<path d="M29.6824 31.8062C29.6021 31.7259 29.4414 31.6455 29.3611 31.5652C29.1201 31.4046 28.8791 31.3242 28.5578 31.3242C28.1561 31.3242 27.7545 31.3242 27.3528 31.3242C27.2725 31.3242 27.2725 31.3242 27.1921 31.3242C26.9511 31.3242 26.7905 31.3242 26.5495 31.4849C26.3888 31.5652 26.1478 31.6455 26.0675 31.8062C25.9872 31.8865 25.9068 32.0472 25.8265 32.1275C25.6658 32.3685 25.5855 32.6095 25.5855 32.9308C25.5855 33.3325 25.5855 33.7342 25.5855 34.1358C25.5855 34.2161 25.5855 34.2161 25.5855 34.2965C25.5855 34.5375 25.5855 34.6981 25.7462 34.9391C25.8265 35.0998 25.9068 35.3408 26.0675 35.4211C26.1478 35.5014 26.3085 35.5818 26.3888 35.6621C26.6298 35.8228 26.8708 35.9031 27.1921 35.9031C27.5938 35.9031 27.9954 35.9031 28.3971 35.9031C28.4774 35.9031 28.4774 35.9031 28.5578 35.9031C28.7184 35.9031 28.7988 35.9031 28.9594 35.8228C28.9594 35.8228 28.9594 35.8228 29.0398 35.8228C29.2004 35.7424 29.3611 35.7424 29.4414 35.6621C29.5217 35.5818 29.6824 35.5014 29.7627 35.4211C29.8431 35.3408 29.9234 35.2605 30.0037 35.0998C30.0037 35.0195 30.0841 34.9391 30.0841 34.9391C30.0841 34.8588 30.1644 34.7785 30.1644 34.6981C30.1644 34.5375 30.2447 34.4571 30.2447 34.2965C30.2447 33.8948 30.2447 33.4932 30.2447 33.0915C30.2447 33.0112 30.2447 33.0112 30.2447 32.9308C30.2447 32.6899 30.2447 32.5292 30.0841 32.2882C29.9234 32.1275 29.8431 31.9669 29.6824 31.8062Z" fill="#DF562A"/>
<path d="M26.3888 14.4547C26.4691 14.535 26.6298 14.6153 26.7101 14.6956C26.9511 14.8563 27.1921 14.9366 27.5134 14.9366C27.9151 14.9366 28.3168 14.9366 28.7184 14.9366C28.7987 14.9366 28.7987 14.9366 28.8791 14.9366C29.0397 14.9366 29.1201 14.9366 29.2807 14.8563C29.2807 14.8563 29.2807 14.8563 29.3611 14.8563C29.5217 14.776 29.6824 14.776 29.7627 14.6956C29.8431 14.6153 30.0037 14.535 30.084 14.4547C30.1644 14.3743 30.2447 14.294 30.325 14.1333C30.325 14.053 30.4054 13.9727 30.4054 13.9727C30.4054 13.8923 30.4857 13.812 30.4857 13.7317C30.4857 13.571 30.566 13.4907 30.566 13.33C30.566 12.9284 30.566 12.5267 30.566 12.125C30.566 12.0447 30.566 12.0447 30.566 11.9644C30.566 11.7234 30.566 11.5627 30.4054 11.3217C30.325 11.1611 30.2447 10.9201 30.084 10.8397C30.0037 10.7594 29.8431 10.6791 29.7627 10.5988C29.5217 10.4381 29.2807 10.3578 28.9594 10.3578C28.5578 10.3578 28.1561 10.3578 27.7544 10.3578C27.6741 10.3578 27.6741 10.3578 27.5938 10.3578C27.3528 10.3578 27.1921 10.3578 26.9511 10.5184C26.7905 10.5988 26.5495 10.6791 26.4691 10.8397C26.3888 10.9201 26.3085 11.0807 26.2281 11.1611C26.0675 11.4021 25.9872 11.6431 25.9872 11.9644C25.9872 12.366 25.9872 12.7677 25.9872 13.1694C25.9872 13.2497 25.9872 13.2497 25.9872 13.33C25.9872 13.571 25.9872 13.7317 26.1478 13.9727C26.1478 14.1333 26.2281 14.294 26.3888 14.4547Z" fill="#DF562A"/>
<path d="M19.7213 14.4547C19.8017 14.535 19.9623 14.6153 20.0427 14.6956C20.2836 14.8563 20.5246 14.9366 20.846 14.9366C21.2476 14.9366 21.6493 14.9366 22.0509 14.9366C22.1313 14.9366 22.1313 14.9366 22.2116 14.9366C22.3723 14.9366 22.4526 14.9366 22.6133 14.8563C22.6133 14.8563 22.6133 14.8563 22.6936 14.8563C22.8542 14.776 23.0149 14.776 23.0952 14.6956C23.1756 14.6153 23.3362 14.535 23.4166 14.4547C23.4969 14.3743 23.5772 14.294 23.6576 14.1333C23.6576 14.053 23.7379 13.9727 23.7379 13.9727C23.7379 13.8923 23.8182 13.812 23.8182 13.7317C23.8182 13.571 23.8986 13.4907 23.8986 13.33C23.8986 12.9284 23.8986 12.5267 23.8986 12.125C23.8986 12.0447 23.8986 12.0447 23.8986 11.9644C23.8986 11.7234 23.8986 11.5627 23.7379 11.3217C23.6576 11.1611 23.5772 10.9201 23.4166 10.8397C23.3362 10.7594 23.1756 10.6791 23.0952 10.5988C22.8542 10.4381 22.6133 10.3578 22.2919 10.3578C21.8903 10.3578 21.4886 10.3578 21.087 10.3578C21.0066 10.3578 21.0066 10.3578 20.9263 10.3578C20.6853 10.3578 20.5246 10.3578 20.2836 10.5184C20.123 10.5988 19.882 10.6791 19.8017 10.8397C19.7213 10.9201 19.641 11.0807 19.5607 11.1611C19.4 11.4021 19.3197 11.6431 19.3197 11.9644C19.3197 12.366 19.3197 12.7677 19.3197 13.1694C19.3197 13.2497 19.3197 13.2497 19.3197 13.33C19.3197 13.571 19.3197 13.7317 19.4803 13.9727C19.4 14.1333 19.5607 14.3743 19.7213 14.4547Z" fill="#DF562A"/>
<path d="M18.2754 26.2634C18.195 26.183 18.0344 26.1027 17.954 26.0224C17.713 25.8617 17.472 25.7814 17.1507 25.7814C16.7491 25.7814 16.3474 25.7814 15.9458 25.7814C15.8654 25.7814 15.8654 25.7814 15.7851 25.7814C15.5441 25.7814 15.3834 25.7814 15.1424 25.942C14.9818 26.0224 14.7408 26.1027 14.6605 26.2634C14.5801 26.3437 14.4998 26.5044 14.4195 26.5847C14.2588 26.8257 14.1785 27.0667 14.1785 27.388C14.1785 27.7897 14.1785 28.1913 14.1785 28.593C14.1785 28.6733 14.1785 28.6733 14.1785 28.7536C14.1785 28.9946 14.1785 29.1553 14.3391 29.3963C14.4195 29.5569 14.4998 29.7979 14.6605 29.8783C14.7408 29.9586 14.9014 30.0389 14.9818 30.1193C15.2228 30.2799 15.4638 30.3603 15.7851 30.3603C16.1867 30.3603 16.5884 30.3603 16.9901 30.3603C17.0704 30.3603 17.0704 30.3603 17.1507 30.3603C17.3114 30.3603 17.3917 30.3603 17.5524 30.2799C17.5524 30.2799 17.5524 30.2799 17.6327 30.2799C17.7934 30.1996 17.954 30.1996 18.0344 30.1193C18.1147 30.0389 18.2754 29.9586 18.3557 29.8783C18.436 29.7979 18.5164 29.7176 18.5967 29.5569C18.5967 29.4766 18.677 29.3963 18.677 29.3963C18.677 29.3159 18.7574 29.2356 18.7574 29.1553C18.7574 28.9946 18.8377 28.9143 18.8377 28.7536C18.8377 28.352 18.8377 27.9503 18.8377 27.5487C18.8377 27.4683 18.8377 27.4683 18.8377 27.388C18.8377 27.147 18.8377 26.9863 18.677 26.7453C18.5164 26.5847 18.436 26.424 18.2754 26.2634Z" fill="#DF562A"/>
<path d="M18.195 31.9669C18.1147 31.8866 17.954 31.8062 17.8737 31.7259C17.6327 31.5652 17.3917 31.4849 17.0704 31.4849C16.6687 31.4849 16.2671 31.4849 15.8654 31.4849C15.7851 31.4849 15.7851 31.4849 15.7048 31.4849C15.4638 31.4849 15.3031 31.4849 15.0621 31.6456C14.9015 31.7259 14.6605 31.8062 14.5801 31.9669C14.4998 32.0472 14.4195 32.2079 14.3391 32.2882C14.1785 32.5292 14.0981 32.7702 14.0981 33.0915C14.0981 33.4932 14.0981 33.8948 14.0981 34.2965C14.0981 34.3768 14.0981 34.3768 14.0981 34.4571C14.0981 34.6981 14.0981 34.8588 14.2588 35.0998C14.3391 35.2605 14.4195 35.5015 14.5801 35.5818C14.6605 35.6621 14.8211 35.7424 14.9015 35.8228C15.1425 35.9834 15.3834 36.0638 15.7048 36.0638C16.1064 36.0638 16.5081 36.0638 16.9097 36.0638C16.9901 36.0638 16.9901 36.0638 17.0704 36.0638C17.2311 36.0638 17.3114 36.0638 17.4721 35.9834C17.4721 35.9834 17.4721 35.9834 17.5524 35.9834C17.7131 35.9031 17.8737 35.9031 17.954 35.8228C18.0344 35.7424 18.195 35.6621 18.2754 35.5818C18.3557 35.5015 18.436 35.4211 18.5164 35.2605C18.5164 35.1801 18.5967 35.0998 18.5967 35.0998C18.5967 35.0195 18.677 34.9391 18.677 34.8588C18.677 34.6981 18.7574 34.6178 18.7574 34.4571C18.7574 34.0555 18.7574 33.6538 18.7574 33.2522C18.7574 33.1719 18.7574 33.1718 18.7574 33.0915C18.7574 32.8505 18.7574 32.6899 18.5967 32.4489C18.436 32.2882 18.3557 32.1275 18.195 31.9669Z" fill="#DF562A"/>
<path d="M11.7685 32.0472C11.6882 31.9669 11.5275 31.8865 11.4472 31.8062C11.2062 31.6455 10.9652 31.5652 10.6439 31.5652C10.2422 31.5652 9.84057 31.5652 9.43892 31.5652C9.35859 31.5652 9.35859 31.5652 9.27826 31.5652C9.03726 31.5652 8.8766 31.5652 8.63561 31.7259C8.47494 31.8062 8.23395 31.8865 8.15362 32.0472C8.07329 32.1275 7.99296 32.2882 7.91262 32.3685C7.75196 32.6095 7.67163 32.8505 7.67163 33.1718C7.67163 33.5735 7.67163 33.9752 7.67163 34.3768C7.67163 34.4571 7.67163 34.4571 7.67163 34.5375C7.67163 34.7785 7.67163 34.9391 7.83229 35.1801C7.91262 35.3408 7.99296 35.5818 8.15362 35.6621C8.23395 35.7424 8.39461 35.8228 8.47494 35.9031C8.71594 36.0638 8.95693 36.1441 9.27826 36.1441C9.67991 36.1441 10.0816 36.1441 10.4832 36.1441C10.5636 36.1441 10.5636 36.1441 10.6439 36.1441C10.8046 36.1441 10.8849 36.1441 11.0455 36.0638C11.0455 36.0638 11.0455 36.0638 11.1259 36.0638C11.2865 35.9834 11.4472 35.9834 11.5275 35.9031C11.6079 35.8228 11.7685 35.7424 11.8489 35.6621C11.9292 35.5818 12.0095 35.5014 12.0898 35.3408C12.0898 35.2605 12.1702 35.1801 12.1702 35.1801C12.1702 35.0998 12.2505 35.0195 12.2505 34.9391C12.2505 34.7785 12.3308 34.6981 12.3308 34.5375C12.3308 34.1358 12.3308 33.7342 12.3308 33.3325C12.3308 33.2522 12.3308 33.2522 12.3308 33.1718C12.3308 32.9308 12.3308 32.7702 12.1702 32.5292C12.0095 32.3685 11.9292 32.1275 11.7685 32.0472Z" fill="#DF562A"/>
<path d="M11.7685 26.2634C11.6882 26.183 11.5275 26.1027 11.4472 26.0224C11.2062 25.8617 10.9652 25.7814 10.6439 25.7814C10.2422 25.7814 9.84057 25.7814 9.43892 25.7814C9.35859 25.7814 9.35859 25.7814 9.27826 25.7814C9.03726 25.7814 8.8766 25.7814 8.63561 25.942C8.47494 26.0224 8.23395 26.1027 8.15362 26.2634C8.07329 26.3437 7.99296 26.5044 7.91262 26.5847C7.75196 26.8257 7.67163 27.0667 7.67163 27.388C7.67163 27.7897 7.67163 28.1913 7.67163 28.593C7.67163 28.6733 7.67163 28.6733 7.67163 28.7536C7.67163 28.9946 7.67163 29.1553 7.83229 29.3963C7.91262 29.5569 7.99296 29.7979 8.15362 29.8783C8.23395 29.9586 8.39461 30.0389 8.47494 30.1193C8.71594 30.2799 8.95693 30.3603 9.27826 30.3603C9.67991 30.3603 10.0816 30.3603 10.4832 30.3603C10.5636 30.3603 10.5636 30.3603 10.6439 30.3603C10.8046 30.3603 10.8849 30.3603 11.0455 30.2799C11.0455 30.2799 11.0455 30.2799 11.1259 30.2799C11.2865 30.1996 11.4472 30.1996 11.5275 30.1193C11.6079 30.0389 11.7685 29.9586 11.8489 29.8783C11.9292 29.7979 12.0095 29.7176 12.0898 29.5569C12.0898 29.4766 12.1702 29.3963 12.1702 29.3963C12.1702 29.3159 12.2505 29.2356 12.2505 29.1553C12.2505 28.9946 12.3308 28.9143 12.3308 28.7536C12.3308 28.352 12.3308 27.9503 12.3308 27.5487C12.3308 27.4683 12.3308 27.4683 12.3308 27.388C12.3308 27.147 12.3308 26.9863 12.1702 26.7453C12.0095 26.5847 11.9292 26.424 11.7685 26.2634Z" fill="#DF562A"/>
<path d="M42.6961 36.7868C42.4551 36.7868 42.2944 36.7868 42.0534 36.7868C42.0534 33.4128 42.0534 30.0389 42.0534 26.7453C42.0534 25.46 42.1337 24.0944 42.0534 22.8091C41.9731 21.2025 41.0091 19.7565 39.4025 19.3549C38.8402 19.1942 38.2778 19.2745 37.7155 19.2745C36.9925 19.2745 36.3499 19.2745 35.6269 19.2745C35.6269 16.8646 35.6269 14.4547 35.6269 12.0447C35.6269 10.7594 35.5466 9.63478 34.5826 8.59048C33.699 7.6265 32.735 6.74286 31.771 5.77888C30.4857 4.49358 29.2807 3.28861 27.9954 2.00331C26.9511 0.959007 25.9872 -0.326293 24.3002 0.0753629C23.2559 0.316357 22.2919 1.60166 21.4886 2.40497C20.2033 3.69027 18.918 4.97557 17.6327 6.26087C16.7491 7.14451 15.7048 8.02816 14.9014 8.99213C14.4195 9.47412 14.2588 10.1168 14.1785 10.8398C11.9292 9.87578 10.0816 12.4464 8.71594 13.812C7.02899 15.499 5.34203 17.1859 3.65507 18.8729C2.93209 19.5959 2.36977 20.3188 2.36977 21.3631C2.36977 21.8451 2.36977 22.4075 2.36977 22.8894C2.36977 27.4683 2.36977 32.1275 2.36977 36.7064V36.7868C2.12878 36.7868 1.80745 36.7868 1.56646 36.7868C-0.522153 36.7868 -0.522153 40 1.56646 40C6.22567 40 10.8046 40 15.4638 40C22.8542 40 30.2447 40 37.5549 40C39.2418 40 41.0091 40 42.6961 40C44.7847 40 44.7847 36.7868 42.6961 36.7868ZM25.3445 3.12795C25.5052 2.88696 25.6658 3.04762 25.3445 3.12795V3.12795ZM17.8737 10.5988C18.3557 10.1168 18.7573 9.71511 19.2393 9.23313C20.4443 8.02816 21.6493 6.82319 22.8542 5.61822C23.3362 5.13623 23.8985 4.57391 24.3805 4.09193C24.5412 3.93126 24.7822 3.7706 24.9429 3.52961C25.1838 3.7706 25.4248 3.93126 25.5855 4.09193C26.7101 5.21656 27.9151 6.42153 29.0398 7.54617C30.0037 8.51015 31.048 9.55445 32.012 10.5184C32.0923 10.5988 32.253 10.6791 32.3333 10.8398C32.4137 10.9201 32.4137 10.9201 32.4137 10.9201C32.494 11.1611 32.4137 11.5627 32.4137 11.8037C32.4137 14.294 32.4137 16.7843 32.4137 19.2745C30.2447 19.2745 28.0758 19.2745 25.9068 19.2745C24.9429 19.2745 23.9789 19.2745 23.1756 19.5155C23.0952 19.4352 23.0952 19.3549 23.0149 19.2745C21.6493 17.8286 20.2033 16.4629 18.7573 15.017C18.3557 14.6153 17.8737 14.1333 17.472 13.7317C17.472 13.2497 17.472 12.7677 17.472 12.2857C17.472 11.9644 17.472 11.5627 17.472 11.2414C17.472 11.2414 17.472 11.2414 17.472 11.1611C17.6327 10.9201 17.7934 10.6791 17.8737 10.5988ZM20.605 21.3631C20.5246 21.2025 20.6853 21.2025 20.605 21.3631V21.3631ZM5.58302 21.4435C5.58302 21.2828 5.66335 21.3631 5.58302 21.4435V21.4435ZM6.70766 36.7868C6.306 36.7868 5.98468 36.7868 5.58302 36.7868V36.7064C5.58302 32.8505 5.58302 28.9946 5.58302 25.0584C5.58302 24.0944 5.58302 23.2108 5.58302 22.2468C5.58302 22.0058 5.58302 21.7648 5.58302 21.5238V21.4435C5.98468 21.1222 6.38634 20.6402 6.70766 20.3188C7.5913 19.4352 8.39462 18.6319 9.27826 17.7482C10.0816 16.9449 10.9652 16.0613 11.7685 15.258C12.0899 14.9366 12.4112 14.6153 12.7325 14.294C12.8128 14.2137 12.9735 14.053 13.1342 13.8923C13.2145 13.9727 13.2948 14.053 13.3752 14.053C14.0981 14.776 14.8211 15.499 15.6244 16.3023C17.2311 17.9089 18.7573 19.4352 20.364 21.0418C20.4443 21.1222 20.5246 21.2025 20.605 21.2828C20.605 21.2828 20.605 21.2828 20.605 21.3631C20.5246 21.8451 20.5246 22.3271 20.605 22.8894C20.5246 23.6928 20.605 24.5764 20.605 25.2994C20.605 29.0749 20.605 32.8505 20.605 36.7064V36.7868C15.9458 36.7868 11.3669 36.7868 6.70766 36.7868ZM28.7988 36.7868C27.1118 36.7868 25.5052 36.7868 23.8182 36.7868V36.7064C23.8182 33.6538 23.8182 30.6012 23.8182 27.5487C23.8182 26.424 23.8182 25.2994 23.8182 24.2551C23.8182 23.7731 23.8182 23.2911 23.8182 22.7288C23.9789 22.2468 24.5412 22.4075 25.1035 22.4075C28.8791 22.4075 32.6547 22.4075 36.4302 22.4075C36.9122 22.4075 38.5992 22.0861 38.7598 22.7288C38.8402 23.0501 38.7598 23.4518 38.7598 23.6928C38.7598 24.4961 38.7598 25.219 38.7598 26.0224C38.7598 29.6373 38.7598 33.1718 38.7598 36.7868C35.4663 36.7868 32.1727 36.7868 28.7988 36.7868Z" fill="#DF562A"/>
</svg>
